<?xml version="1.0" standalone="no"?>
<!DOCTYPE svg PUBLIC "-//W3C//DTD SVG 20010904//EN"
 "http://www.w3.org/TR/2001/REC-SVG-20010904/DTD/svg10.dtd">
<svg version="1.0" xmlns="http://www.w3.org/2000/svg"
 width="1239.000000pt" height="1280.000000pt" viewBox="0 0 1239.000000 1280.000000"
 preserveAspectRatio="xMidYMid meet">
<g transform="translate(0.000000,1280.000000) scale(0.100000,-0.100000)"
fill="#8bc34a" stroke="none">
<path d="M9110 12790 c-107 -11 -586 -53 -1145 -100 -432 -36 -557 -47 -940
-80 -465 -40 -881 -76 -1410 -120 -264 -22 -559 -47 -655 -55 -187 -17 -294
-26 -570 -50 -882 -76 -1153 -97 -1325 -105 -282 -12 -430 -38 -660 -115 -355
-120 -659 -312 -969 -614 -220 -216 -401 -442 -571 -717 -431 -693 -707 -1532
-815 -2477 -46 -400 -44 -210 -47 -4059 l-3 -3617 45 15 c24 9 50 13 57 11 8
-3 6 -6 -4 -6 -10 -1 -18 -5 -18 -11 0 -5 7 -7 15 -4 30 12 14 -6 -17 -20 -20
-8 -26 -15 -16 -15 25 -1 88 31 88 44 0 7 11 17 25 23 35 16 43 15 19 -3 -17
-13 -14 -14 31 -9 53 6 53 6 195 -74 55 -30 65 -32 300 -58 25 -3 71 -9 102
-13 34 -4 64 -4 74 2 22 13 81 11 114 -3 21 -9 41 -5 108 18 79 28 82 28 94
10 11 -16 17 -17 45 -8 36 13 60 4 106 -38 25 -24 30 -25 76 -16 38 8 56 7 75
-3 23 -12 32 -10 87 17 51 26 63 29 77 18 9 -7 38 -30 63 -51 41 -33 49 -37
71 -27 34 16 163 -3 198 -29 23 -16 44 -19 140 -20 64 -1 119 -6 126 -12 8 -6
20 -7 31 -2 28 13 183 4 177 -11 -3 -8 7 -10 35 -8 22 2 47 0 56 -5 16 -9 111
18 164 46 10 6 49 6 95 0 60 -6 89 -15 120 -36 41 -28 42 -28 180 -25 121 2
146 0 200 -19 43 -15 100 -24 196 -30 391 -23 459 -32 498 -62 7 -5 63 -11
125 -11 121 -2 156 -13 226 -72 l32 -27 52 26 c107 52 171 59 247 26 l48 -21
41 21 c53 27 81 26 143 -5 41 -21 59 -25 93 -20 50 8 209 -9 282 -30 29 -9
101 -17 160 -18 94 -3 122 -8 212 -39 90 -31 112 -35 165 -30 56 5 66 2 128
-30 56 -31 71 -35 100 -27 18 4 50 11 71 15 l37 6 0 1282 0 1282 103 -7 c56
-4 165 -11 242 -17 187 -14 890 -65 1325 -96 424 -30 913 -66 1155 -86 66 -5
157 -12 202 -16 103 -8 304 11 453 43 919 195 1741 1066 2228 2359 255 679
401 1366 474 2235 17 202 17 953 0 1150 -52 601 -114 994 -233 1465 -310 1230
-866 2177 -1597 2724 -443 332 -955 489 -1432 441z"/>
<path d="M48 683 c7 -3 16 -2 19 1 4 3 -2 6 -13 5 -11 0 -14 -3 -6 -6z"/>
<path d="M2240 400 c0 -5 9 -10 20 -10 11 0 20 5 20 10 0 6 -9 10 -20 10 -11
0 -20 -4 -20 -10z"/>
</g>
</svg>
